<svg width="30" height="30" viewBox="0 0 30 30" fill="none" xmlns="http://www.w3.org/2000/svg">
<g clip-path="url(#clip0_17_594)">
<path d="M15 0C12.0333 0 9.13318 0.879735 6.66645 2.52796C4.19971 4.17618 2.27712 6.51886 1.14181 9.25975C0.00649166 12.0006 -0.290558 15.0166 0.28822 17.9264C0.866998 20.8361 2.29561 23.5088 4.3934 25.6066C6.49119 27.7044 9.16393 29.133 12.0736 29.7118C14.9834 30.2906 17.9994 29.9935 20.7403 28.8582C23.4811 27.7229 25.8238 25.8003 27.472 23.3336C29.1203 20.8668 30 17.9667 30 15C30 11.0218 28.4196 7.20644 25.6066 4.3934C22.7936 1.58035 18.9782 0 15 0V0ZM23.4 16.6H16.6V23.4C16.6 23.8243 16.4314 24.2313 16.1314 24.5314C15.8313 24.8314 15.4243 25 15 25C14.5757 25 14.1687 24.8314 13.8686 24.5314C13.5686 24.2313 13.4 23.8243 13.4 23.4V16.6H6.6C6.38988 16.6 6.18183 16.5586 5.98771 16.4782C5.79358 16.3978 5.6172 16.2799 5.46863 16.1314C5.32005 15.9828 5.2022 15.8064 5.12179 15.6123C5.04138 15.4182 5 15.2101 5 15C5 14.7899 5.04138 14.5818 5.12179 14.3877C5.2022 14.1936 5.32005 14.0172 5.46863 13.8686C5.6172 13.7201 5.79358 13.6022 5.98771 13.5218C6.18183 13.4414 6.38988 13.4 6.6 13.4H13.4V6.6C13.4 6.17565 13.5686 5.76869 13.8686 5.46863C14.1687 5.16857 14.5757 5 15 5C15.4243 5 15.8313 5.16857 16.1314 5.46863C16.4314 5.76869 16.6 6.17565 16.6 6.6V13.4H23.4C23.6101 13.4 23.8182 13.4414 24.0123 13.5218C24.2064 13.6022 24.3828 13.7201 24.5314 13.8686C24.6799 14.0172 24.7978 14.1936 24.8782 14.3877C24.9586 14.5818 25 14.7899 25 15C25 15.2101 24.9586 15.4182 24.8782 15.6123C24.7978 15.8064 24.6799 15.9828 24.5314 16.1314C24.3828 16.2799 24.2064 16.3978 24.0123 16.4782C23.8182 16.5586 23.6101 16.6 23.4 16.6Z" fill="black"/>
</g>
<defs>
<clipPath id="clip0_17_594">
<rect width="30" height="30" fill="white"/>
</clipPath>
</defs>
</svg>
