<svg width="30" height="26" viewBox="0 0 30 26" fill="none" xmlns="http://www.w3.org/2000/svg">
<g clip-path="url(#clip0_17_690)">
<path d="M28.6201 6.38996L29.5601 4.76996C29.8899 4.19784 30.0329 3.53698 29.9689 2.87968C29.905 2.22238 29.6373 1.60146 29.2034 1.10364C28.7695 0.605816 28.1909 0.255951 27.5484 0.102903C26.906 -0.0501438 26.2318 0.0012695 25.6201 0.249963L1.97005 9.94996C1.39002 10.1895 0.894125 10.5958 0.545198 11.1174C0.196271 11.639 0.0100098 12.2524 0.0100098 12.88C0.0100098 13.5075 0.196271 14.1209 0.545198 14.6425C0.894125 15.1641 1.39002 15.5704 1.97005 15.81L25.6201 25.48C26.233 25.731 26.9093 25.7837 27.5537 25.6307C28.1982 25.4776 28.7786 25.1266 29.2133 24.6268C29.648 24.127 29.9152 23.5036 29.9774 22.8441C30.0396 22.1846 29.8936 21.5222 29.5601 20.95L28.6201 19.33C27.4798 17.3717 26.8793 15.146 26.8801 12.88C26.8722 10.6003 27.4729 8.35994 28.6201 6.38996Z" fill="black"/>
</g>
<defs>
<clipPath id="clip0_17_690">
<rect width="30" height="25.69" fill="white"/>
</clipPath>
</defs>
</svg>
