<svg width="30" height="31" viewBox="0 0 30 31" fill="none" xmlns="http://www.w3.org/2000/svg">
<path d="M10.3758 14.4548C10.3299 13.9848 9.98674 13.7003 9.44199 13.5836C8.89725 13.4669 8.51345 13.6807 8.31091 14.0674C8.15499 14.3639 8.00912 14.6936 8.00721 15.0092C7.98736 18.4379 7.99549 21.8664 8.00147 25.295C8.00147 25.4927 8.01988 25.6964 8.08038 25.8867C8.21645 26.314 8.50364 26.6387 9.09286 26.7024C9.87387 26.7868 10.3792 26.3792 10.3823 25.6358C10.3902 23.8137 10.3849 21.9916 10.3851 20.1695C10.3851 18.5295 10.3851 16.8895 10.3851 15.2496C10.3849 14.9845 10.4012 14.7175 10.3758 14.4548ZM29.9951 6.06273C29.9901 4.776 29.3875 4.23964 27.793 4.19847C25.7331 4.14527 23.671 4.13711 21.61 4.10798C21.3947 4.10488 21.1807 4.09206 20.9339 4.08254C20.9339 3.58036 20.9394 3.13449 20.9339 2.68843C20.9115 1.15295 19.9858 0.398892 18.1026 0.39326C16.1417 0.387434 14.1809 0.390736 12.22 0.39326C10.2091 0.394814 9.30258 1.12304 9.28297 2.75445C9.27747 3.19586 9.28297 3.63745 9.28297 4.10973C7.16044 4.10973 5.12065 4.10507 3.08086 4.11361C2.69561 4.11536 2.30129 4.13614 1.92728 4.20605C1.23117 4.33616 0.527888 4.57502 0.320083 5.16245C-0.0725714 6.27226 -0.0926552 7.42674 0.19789 8.55462C0.418369 9.4114 1.29192 9.73298 2.30751 9.88814C2.33883 10.3326 2.39455 10.7599 2.39503 11.1871C2.40124 15.981 2.38953 20.775 2.40962 25.569C2.41249 26.2606 2.48136 26.9647 2.65401 27.6407C3.05121 29.2043 4.74473 30.3662 6.70992 30.3753C12.3666 30.4014 18.024 30.386 23.6808 30.3804C24.6166 30.3804 25.4162 30.0732 26.1372 29.6005C27.5003 28.7072 27.8903 27.4918 27.8905 26.1454C27.8915 20.8703 27.8888 15.5953 27.8826 10.3202C27.8826 9.96776 27.9783 9.80134 28.4434 9.71492C29.4762 9.52306 29.98 8.96417 29.9932 8.10312C30.0037 7.42286 29.9977 6.74279 29.9951 6.06273ZM12.9481 2.32063C13.9867 2.29791 15.0262 2.30723 16.0652 2.30529C16.3912 2.30529 16.7176 2.30529 17.0428 2.3183C17.9799 2.35908 18.3994 2.70202 18.451 3.46714C18.4642 3.66134 18.4529 3.85553 18.4529 4.07846H11.6377C11.6167 3.90855 11.5877 3.73358 11.5751 3.55764C11.5169 2.74105 11.9424 2.34257 12.9481 2.32063ZM25.3973 26.0423C25.3979 26.3076 25.3807 26.5727 25.3459 26.8365C25.2197 27.7644 24.5455 28.3439 23.409 28.5C23.1279 28.5399 22.8432 28.5607 22.5579 28.5621C17.5347 28.5659 12.5113 28.5664 7.48781 28.5637C6.03867 28.5627 5.18497 28.1629 4.86239 27.3014C4.73995 26.9742 4.69332 26.6167 4.69261 26.2722C4.68256 20.9315 4.68073 15.5912 4.68711 10.2513C4.68711 10.1392 4.71102 10.0274 4.72824 9.88387H25.3653C25.377 10.0678 25.3978 10.2437 25.3978 10.4195C25.3999 15.6268 25.3997 20.8344 25.3973 26.0423ZM27.6789 7.09603C27.644 7.54462 27.2948 7.77862 26.7982 7.86989C26.5232 7.92058 26.2307 7.92213 25.9461 7.92232C19.9246 7.92504 13.9031 7.92504 7.88142 7.92232C6.53511 7.92232 5.1888 7.90621 3.84273 7.8864C3.6036 7.88271 3.2913 7.88873 3.13993 7.77668C2.84771 7.56054 2.45863 7.26323 2.45911 6.99991C2.45911 6.7325 2.83049 6.41267 3.13729 6.21711C3.34295 6.08603 3.71934 6.10312 4.01969 6.10254C7.6733 6.09594 11.3271 6.09451 14.981 6.09827C18.6346 6.09827 22.2884 6.0995 25.9423 6.10196C26.2656 6.10196 26.6057 6.11303 26.9082 6.19323C27.4187 6.32955 27.7143 6.63288 27.6789 7.09603ZM16.18 15.1174C16.18 14.869 16.1831 14.6166 16.1322 14.3734C16.0337 13.9114 15.5925 13.6236 15.0135 13.6044C14.4858 13.5869 14.0596 13.851 13.9231 14.319C13.858 14.5416 13.843 14.7781 13.8423 15.0082C13.8332 17.7948 13.8281 20.5812 13.827 23.3675C13.8255 24.1802 13.7992 24.9933 13.8284 25.805C13.8485 26.3633 14.3473 26.7453 14.9932 26.7711C15.5805 26.7948 16.0578 26.428 16.1484 25.864C16.1826 25.6504 16.1814 25.4337 16.1817 25.2185C16.1841 23.5433 16.1845 21.868 16.1831 20.1928C16.1825 18.501 16.1814 16.8092 16.18 15.1174ZM21.9192 14.3425C21.8259 13.8885 21.4562 13.6407 20.9148 13.6108C20.3607 13.5801 19.8897 13.752 19.7294 14.2208C19.6278 14.5187 19.5943 14.8399 19.5919 15.151C19.5793 16.8239 19.586 18.4969 19.586 20.1699C19.586 21.8264 19.58 23.4828 19.5912 25.1391C19.5934 25.4514 19.6211 25.7724 19.7153 26.073C19.8476 26.495 20.2015 26.7709 20.7675 26.7653C21.3414 26.7596 21.7391 26.5066 21.8823 26.0574C21.9679 25.7889 21.9861 25.5005 21.9868 25.2211C21.9932 21.8254 21.9936 18.4297 21.988 15.0341C21.9886 14.8024 21.9659 14.5712 21.9201 14.3425H21.9192Z" fill="#FF0000"/>
</svg>
