<svg width="30" height="31" viewBox="0 0 30 31" fill="none" xmlns="http://www.w3.org/2000/svg">
<path d="M29.1767 1.21336C29.7039 1.74103 30 2.45643 30 3.20235C30 3.94826 29.7039 4.66366 29.1767 5.19134L27.8507 6.51733L23.8727 2.53935L25.1987 1.21336C25.7264 0.686155 26.4418 0.390015 27.1877 0.390015C27.9336 0.390015 28.649 0.686155 29.1767 1.21336ZM9.28918 17.1238L7.96319 22.4277L13.2672 21.1017L26.5253 7.84272L22.5473 3.86474L9.28918 17.1238ZM22.5006 14.52V26.6399H3.75015V7.88943H15.8709L19.6202 4.13928H0V30.39H26.2504V10.7689L22.5006 14.52Z" fill="#1E50CF"/>
</svg>
