<svg width="30" height="30" viewBox="0 0 30 30" fill="none" xmlns="http://www.w3.org/2000/svg">
<g clip-path="url(#clip0_17_688)">
<path d="M30 5.22002C29.9916 5.03559 29.9211 4.85942 29.8 4.72002C28.2934 3.20002 26.7867 1.69669 25.28 0.21002C25.1494 0.0937869 24.9844 0.0235381 24.81 0.0100204C24.17 0.0100204 23.54 0.0100204 22.9 0.0100204H22.56V9.01002C22.5926 9.21441 22.5764 9.42362 22.5125 9.6205C22.4487 9.81738 22.3391 9.99633 22.1927 10.1427C22.0464 10.289 21.8674 10.3986 21.6705 10.4625C21.4736 10.5263 21.2644 10.5426 21.06 10.51H7.00004C6.79532 10.5395 6.58655 10.5213 6.39006 10.4567C6.19358 10.392 6.01473 10.2828 5.8675 10.1375C5.72028 9.99224 5.60869 9.81485 5.54147 9.61924C5.47425 9.42363 5.45322 9.21511 5.48004 9.01002V2.04374e-05H5.08004H2.90004C2.51212 -0.0203684 2.12427 0.0413577 1.76185 0.181162C1.39943 0.320966 1.0706 0.5357 0.796866 0.811319C0.523134 1.08694 0.310665 1.41724 0.173355 1.78061C0.036045 2.14399 -0.023014 2.53225 4.03887e-05 2.92002V27.08C-0.0250633 27.4709 0.0336009 27.8625 0.172107 28.2289C0.310614 28.5952 0.525767 28.9277 0.803168 29.2042C1.08057 29.4806 1.41382 29.6946 1.78062 29.8319C2.14741 29.9691 2.5393 30.0265 2.93004 30H27.09C27.4783 30.0233 27.867 29.9641 28.2307 29.8261C28.5943 29.6881 28.9245 29.4745 29.1995 29.1995C29.4746 28.9245 29.6881 28.5943 29.8261 28.2306C29.9641 27.867 30.0234 27.4783 30 27.09C30 19.8034 30 12.5134 30 5.22002ZM27.33 25.83C27.3544 26.0236 27.3342 26.2203 27.271 26.4049C27.2078 26.5895 27.1032 26.7572 26.9652 26.8952C26.8272 27.0331 26.6595 27.1378 26.4749 27.201C26.2903 27.2642 26.0936 27.2844 25.9 27.26H4.20004C4.0017 27.2885 3.79945 27.2703 3.60935 27.207C3.41924 27.1437 3.2465 27.0369 3.10482 26.8952C2.96313 26.7536 2.8564 26.5808 2.79309 26.3907C2.72977 26.2006 2.71161 25.9984 2.74004 25.8V14.8C2.70753 14.6009 2.7218 14.397 2.78171 14.2044C2.84162 14.0118 2.94554 13.8357 3.08524 13.6902C3.22494 13.5447 3.39659 13.4337 3.58661 13.366C3.77662 13.2982 3.97979 13.2757 4.18004 13.3C11.42 13.3 18.6534 13.3 25.88 13.3C26.0763 13.2757 26.2755 13.2965 26.4625 13.3607C26.6495 13.425 26.8193 13.5311 26.9591 13.6709C27.099 13.8107 27.205 13.9806 27.2693 14.1676C27.3336 14.3546 27.3544 14.5538 27.33 14.75V25.83ZM15.64 7.83002H18.44C18.6398 7.85457 18.8426 7.8331 19.0328 7.76724C19.2231 7.70139 19.3957 7.59291 19.5376 7.45008C19.6794 7.30726 19.7867 7.13389 19.8513 6.94322C19.9158 6.75255 19.9359 6.54965 19.91 6.35002V2.04374e-05H14.26C14.26 0.10002 14.26 0.17002 14.26 0.24002L14.2 6.36002C14.1734 6.55763 14.1918 6.75872 14.254 6.94818C14.3161 7.13764 14.4204 7.31056 14.559 7.45394C14.6976 7.59733 14.8668 7.70745 15.0541 7.77605C15.2413 7.84465 15.4416 7.86994 15.64 7.85002V7.83002Z" fill="black"/>
</g>
<defs>
<clipPath id="clip0_17_688">
<rect width="30" height="30" fill="white"/>
</clipPath>
</defs>
</svg>
